<svg width="512" height="512" viewBox="0 0 512 512" fill="none" xmlns="http://www.w3.org/2000/svg">
  <rect width="512" height="512" fill="#DC2626"/>
  <path d="M256 128C211.817 128 176 163.817 176 208V304C176 348.183 211.817 384 256 384C300.183 384 336 348.183 336 304V208C336 163.817 300.183 128 256 128Z" fill="white"/>
  <path d="M224 208C224 194.745 234.745 184 248 184H264C277.255 184 288 194.745 288 208V304C288 317.255 277.255 328 264 328H248C234.745 328 224 317.255 224 304V208Z" fill="#DC2626"/>
  <path d="M200 240H312V272H200V240Z" fill="white"/>
</svg>
